{"title":"Arrow S02E13  Itunes-DL","uid":9578103,"size":444759795,"categoryP":"video","categoryS":"tv_shows","magnet":"?xt=urn:btih:af6fb1e36ef07fb3189ba1d0b2a9a7708d6ef70a&amp;dn=Arrow+S02E13++Itunes-DL&amp;tr=udp%3A%2F%2Ftracker.openbittorrent.com%3A80&amp;tr=udp%3A%2F%2Fopen.demonii.com%3A1337&amp;tr=udp%3A%2F%2Ftracker.coppersurfer.tk%3A6969&amp;tr=udp%3A%2F%2Fexodus.desync.com%3A6969","seeders":1,"leechers":0,"uploader":"sonicx33","files":2,"time":1391729968,"description":"As Laurel continues to unravel, Oliver and Lance try to convince Sara to stay in \n\nStarling City and finally reunite with Laurel and Dinah.\n\n\nFormat                                   : MPEG-4\nFormat profile                           : Base Media\nCodec ID                                 : isom\nFile size                                : 424 MiB\nDuration                                 : 42mn 30s\nOverall bit rate                         : 1 395 Kbps\nWriting application                      : Lavf54.59.106\n\nVideo\nID                                       : 1\nFormat                                   : AVC\nFormat/Info                              : Advanced Video Codec\nFormat profile                           : &lt;a class=&quot;__cf_email__&quot; href=&quot;/cdn-cgi/l/email-protection&quot; data-cfemail=&quot;f3bb9a949bb3bfc0ddc2&quot;&gt;[email&amp;#160;protected]&lt;/a&gt;&lt;script cf-hash='f9e31' type=&quot;text/javascript&quot;&gt;\n/* &lt;![CDATA[ */!function(){try{var t=&quot;currentScript&quot;in document?document.currentScript:function(){for(var t=document.getElementsByTagName(&quot;script&quot;),e=t.length;e--;)if(t[e].getAttribute(&quot;cf-hash&quot;))return t[e]}();if(t&amp;&amp;t.previousSibling){var e,r,n,i,c=t.previousSibling,a=c.getAttribute(&quot;data-cfemail&quot;);if(a){for(e=&quot;&quot;,r=parseInt(a.substr(0,2),16),n=2;a.length-n;n+=2)i=parseInt(a.substr(n,2),16)^r,e+=String.fromCharCode(i);e=document.createTextNode(e),c.parentNode.replaceChild(e,c)}}}catch(u){}}();/* ]]&gt; */&lt;/script&gt;\nFormat settings, CABAC                   : Yes\nFormat settings, ReFrames                : 5 frames\nCodec ID                                 : avc1\nCodec ID/Info                            : Advanced Video Coding\nDuration                                 : 42mn 30s\nBit rate                                 : 1 326 Kbps\nWidth                                    : 1 280 pixels\nHeight                                   : 720 pixels\nDisplay aspect ratio                     : 16:9\nFrame rate mode                          : Variable\nFrame rate                               : 23.976 fps\nMinimum frame rate                       : 5.319 fps\nMaximum frame rate                       : 38.462 fps\nColor space                              : YUV\nChroma subsampling                       : 4:2:0\nBit depth                                : 8 bits\nScan type                                : Progressive\nBits/(Pixel*Frame)                       : 0.060\nStream size                              : 403 MiB (95%)\n\nAudio\nID                                       : 2\nFormat                                   : AAC\nFormat/Info                              : Advanced Audio Codec\nFormat profile                           : HE-AAC / LC\nCodec ID                                 : 40\nDuration                                 : 42mn 30s\nBit rate mode                            : Constant\nBit rate                                 : 64.0 Kbps\nChannel(s)                               : 2 channels\nChannel positions                        : Front: L R\nSampling rate                            : 48.0 KHz / 24.0 KHz\nCompression mode                         : Lossy\nStream size                              : 19.5 MiB (5%)\n\n","torrent":{"xt":"urn:btih:af6fb1e36ef07fb3189ba1d0b2a9a7708d6ef70a","amp;dn":"Arrow+S02E13++Itunes-DL","amp;tr":["udp%3A%2F%2Ftracker.openbittorrent.com%3A80","udp%3A%2F%2Fopen.demonii.com%3A1337","udp%3A%2F%2Ftracker.coppersurfer.tk%3A6969","udp%3A%2F%2Fexodus.desync.com%3A6969"],"infoHash":"af6fb1e36ef07fb3189ba1d0b2a9a7708d6ef70a","infoHashBuffer":{"type":"Buffer","data":[175,111,177,227,110,240,127,179,24,155,161,208,178,169,167,112,141,110,247,10]},"announce":[],"urlList":[]}}